<svg id="Layer_1" data-name="Layer 1" xmlns="http://www.w3.org/2000/svg" xmlns:xlink="http://www.w3.org/1999/xlink" width="13.3333in" height="7.5in" viewBox="0 0 960 540"><defs><style>.cls-1{fill:none;}.cls-2{clip-path:url(#clip-path);}.cls-3{fill:#fff;}.cls-4{fill-opacity:0;}.cls-5{clip-path:url(#clip-path-2);}</style><clipPath id="clip-path"><rect class="cls-1" width="960" height="540"/></clipPath><clipPath id="clip-path-2"><rect class="cls-1" x="16" y="16" width="927.9999" height="312.7773"/></clipPath></defs><title>freephonics cinespeak</title><g class="cls-2"><path class="cls-3" d="M0,0H960V540H0Z"/><path class="cls-4" d="M16,16H944V328.7773H16Z"/><g class="cls-5"><path class="cls-3" d="M16.9071,330.5423q0-156.8577,0-313.7161H945.8455q0,156.8577,0,313.7158Zm123.88-229.3075-.1538-.1531c1.095,3.9525,4.044,3.8722,7.0887,3.0522a159.2742,159.2742,0,0,0,15.9346-4.7346c4.46-1.7186,7.0051-.1813,9.5448,4.149-10.281,3.38-20.2291,6.7651-30.256,9.8982a8.4106,8.4106,0,0,0-6.0882,9.3933c.3781,2.8106,4.1076,5.2086,6.4549,7.6867.5228.552,1.5039.67,2.41,1.044-.7532,1.2618-1.34,2.1825-1.8656,3.137-1.651,2.9994-2.4558,5.9469-.441,9.2378,2.0086,3.2809,5.0029,2.646,7.9206,2.4532,5.8438-.3862,11.682-.8582,17.58-1.299a9.0954,9.0954,0,0,1-.0209,2.2142c-1.53,3.9608-1.8791,7.746,2.178,10.4226,4.1163,2.7155,7.0539-.1378,9.9039-2.57,9.8459-8.4015,19.6425-16.8607,29.8541-25.6386l5.6659,3.4469c-17.7466,18.3551-35.4886,35.717-56.8071,48.9163a24.5838,24.5838,0,0,1-8.3188,2.977c-5.627,1.05-11.3412,1.6315-17.3234,2.4485,14.1735,2.1214,24.0571.07,36.0576-9.8,15.2033-12.5044,29.7215-25.8514,44.3287-39.0633,3.198-2.8926,5.3832-3.9,9.5156-1.2794,13.0513,8.2774,26.4571,15.9954,39.7113,23.9539,1.351.8112,2.6046,1.7846,4.2334,2.911-9.6259,4.1428-11.632,4.0054-19.3785-.6425a64.2436,64.2436,0,0,0-7.8179-4.2042c-3.6929-1.5684-7.4574-2.1-11.752,1.4967,4.3365,0,8.2892-1.1961,10.7464.2139,9.0359,5.1852,17.6257,11.1609,26.2715,17.0047,2.5649,1.7336,2.4651,3.6841-.4714,5.3307-2.4925,1.3977-4.8217,3.0866-7.2232,4.6467l.5825.8606,4.6453-2.0976c.3439,1.0041.6207,1.8121.8843,2.5815l3.945-1.5716c.7269,6.93-3.8384,13.486-9.9522,15.9532l-20.5791-26.3741-1.1009.86c4.6373,9.8144,15.6279,15.5467,18.48,27.0387l-12.4456,1.7834.1162,1.6866h9.83l.0158,1.2664-7.093,1.2852,3.4515,1.7239c-5.5857,6.0679-18.09,7.9541-24.6736,3.748-.5016-.3205-.6176-2.3836-.1292-2.9108,1.7965-1.94,3.9575-3.5361,5.9178-5.331,2.7758-2.5416,5.4953-5.1447,8.2388-7.7215l-.934-1.0009c-6.1087,5.2274-11.6556,11.4156-18.4853,15.41-6.7315,3.9372-14.7622,5.6527-22.6772,8.5068,7.07.452,13.0914-1.6056,19.1-4.2026a10.226,10.226,0,0,1,6.3156-.2064c10.1593,2.824,20.01,2.7728,28.4307-4.19a140.39,140.39,0,0,0,16.4423-16.3384c7.2468-8.3656,5.8948-18.5077-2.7509-25.43-1.366-1.0937-2.6724-2.2616-4.537-3.8462,7.1042-2.6024,13.0259-3.2994,19.4285-.38,3.4794,1.5863,8.2236,2.9514,11.502,1.8206,4.7752-1.647,8.64-.8667,12.8751.59a104.486,104.486,0,0,0,11.5459,3.7571A46.0522,46.0522,0,0,0,326.64,176.39c4.3873-.2241,8.516-5.0535,8.6934-9.1938.2-4.6727-3.7828-5.2111-6.809-6.503-2.1342-.9111-4.469-1.3442-6.6964-2.0474-6.2365-1.969-12.4971-3.8719-18.6663-6.0347-1.2318-.4319-2.1-1.9-3.1361-2.8909,1.3206-.45,2.63-1.2425,3.9638-1.2863,4.5045-.1476,9.05.3141,13.5192-.102,5.2525-.489,10.0534-5.04,10.1813-8.8832.1441-4.3282-3.019-6.9591-9.8843-7.9294-4.294-.6069-8.6258-.9464-13.8352-1.5011l3.4033-23.3066a25.1311,25.1311,0,0,1,2.8343-.2734c25.1913.4426,50.3807,1.0351,75.5736,1.3428q155.3991,1.8974,310.8,3.6731c50.0766.614,100.1508,1.4174,150.226,2.14a23.9958,23.9958,0,0,1,4.6673.2658c.3327.0716.3388,1.66.4917,2.5511l.1043-.0826c-5.28.0712-7.8187,3.9542-10.5934,7.56C830.44,138.23,823.2859,154.734,815.4494,170.8418a26.3542,26.3542,0,0,0-1.3144,19.2129c3.0469,10.63,6.194,21.2315,9.3719,31.8231,1.648,5.4926,2.7857,11.29,5.4168,16.2837a17.24,17.24,0,0,1,2.2213,10.1564,79.1651,79.1651,0,0,1-1.3311,9.2678c-4.6031,21.1558-9.3,42.2911-13.9358,63.44-.4673,2.1317-.7234,4.31-1.0774,6.4664l1.6668.2879A807.8112,807.8112,0,0,0,834.16,245.4354l5.6643,3.5461c-1.2386-2.9762-3.3933-4.8849-4.8739-7.2208-2.8732-4.5327-6.1636-9.0363-7.8541-14.0346-3.5832-10.5942-5.7638-21.6667-9.4209-32.2309-4.2192-12.1876-2.9864-23.2381,5.3673-32.9187,9.5887-11.1116,19.6443-21.8307,29.7633-32.4671,2.5576-2.6884,6.3133-3.3352,10.0526-1.8241,3.6131,1.46,7.1636,3.1113,10.8572,4.3275,4.3025,1.4167,6.76,3.5173,4.4926,8.3424-.0288.0611.3294.304.7155.6477l2.2176-3.9045c6.7439,5.98,8.5053,16.1973,18.1484,19.9379-5.36,3.1956-15.0376.0637-35.1974-10.5049l6.6918,7.8949-21.6093,7.2266q.3423.9609.6846,1.9218l23.9314-8.6277a80.0527,80.0527,0,0,1-5.1133,7.4258,82.5516,82.5516,0,0,1-7.0662,6.8636c-2.1526,1.97-4.412,3.822-6.6242,5.7262l.9269,1.2189c1.1578-.6039,2.5573-.9681,3.433-1.8516,4.7191-4.7617,9.611-9.404,13.85-14.5738,3.6682-4.4734,8.73-4.6885,12.7512.43-4.0038,2.5857-8.9869,4.2033-10.9182,10.3658,5.8762-3.4969,9.3927-9.15,16.6567-11.0667l-10.4188,15.2867,1.431.9372a78.5636,78.5636,0,0,1,5.3033-7.5955,72.2572,72.2572,0,0,1,6.6691-6.0244c-2.1363,20.1441-1.9454,23.9865,2.71,27.8428-2.8362-13.54-1.5059-25.8143,8.0877-37.3459,1.46,9.0536,2.8742,17.3471,10.6919,23.9425-2.73-5.8835-5.2692-10.51-7.0406-15.4141-1.767-4.8919-.5866-6.3614,4.2133-7.0655-6.8585-2.9722-13.907-5.8335-20.7851-9.0581-7.8926-3.7-9.7856-9.2521-6.33-17.62,1.8912,1.6405,3.6373,3.4328,5.6481,4.8492,7.0729,4.982,12.0612,5.3168,16.3873-3.0266.4987-.962,1.6756-2.1759,2.5878-2.2188,4.7333-.223,9.4828-.1038,15.1192-.1038l-9.0171,14.4878.9948.6817c4.3776-3.9792,5.8015-10.9762,12.9833-13.58-1.252,2.431-2.012,3.9067-3.1976,6.2086l5.5878-3.2639a41.9516,41.9516,0,0,1,1.35,4.8852c1.8869,13.1176,3.4478,26.2884,5.6417,39.3533,1.3669,8.14,1.4153,15.7569-3.3117,22.9415a19.5429,19.5429,0,0,0-2.2782,6.11c-2.3673,9.7518-7.1208,18.2979-13.1167,26.2025-6.9932,9.2193-15.9869,14.7338-27.9071,14.6739a12.9635,12.9635,0,0,0-2.946.68q.1181.6318.2362,1.2637l13.9027-1.013q-7.4523,35.9561-14.8569,71.6819l1.7976.5334a40.87,40.87,0,0,0,2.2513-6.1281c3.9-19.5581,7.5248-39.173,11.6529-58.6819.7926-3.7458,2.521-8.4139,5.3838-10.4069,12.1821-8.4809,19.0051-20.45,24.1609-33.7483,1.6316-4.2083,2.5295-8.7622,4.5876-12.73,3.4368-6.6266,3.6342-13.3577,2.5714-20.4808-1.5421-10.3361-2.6329-20.74-4.1827-31.0745-1-6.6716-.637-14.3911-7.8235-18.0217-3.8229-1.9313-8.5494-2.0441-12.84-3.0941-1.8171-.4447-4.4353-.72-5.0849-1.9321-.6124-1.1427.5139-3.6739,1.5353-5.132,1.673-2.3882,1.772-4.5841-.5419-6.0711-5.0094-3.2193-3.6088-7.258-2.5943-11.8287a21.5228,21.5228,0,0,0-.31-10.2559c-.8766-3.0279-3.5941-5.4717-4.9794-8.418a31.2689,31.2689,0,0,1-2.8839-9.0275c-1.6779-12.8137-2.4114-25.7843-4.7383-38.4686-1.6632-9.0663-6.1184-11.1328-14.7325-8.3532-3.1122,1.0042-4.6167.12-6.2529-2.0274a11.0933,11.0933,0,0,0-11.0854-4.5958c-6.5188.9433-10.0967,5.7117-10.1726,14.0574q-.141,15.4944.096,30.9908c.0544,3.2849-.4813,5.83-3.141,8.221-1.4326,1.2881-1.9089,4.079-2.05,6.2418-.1418,2.18.6664,4.4208,1.1267,7.0214-2.4293,0-4.4451.0048-6.4607-.0006q-162.9492-.44-325.8985-.9011-103.7792-.3526-207.5575-.9862c-3.678-.0168-6.6111-.4058-9.2623-3.8959-5.827-7.67-15.036-7.1962-21.5985.2751a7.1664,7.1664,0,0,1-4.5231,2.4765c-14.554.2519-29.1155.4077-43.6669.147a10.6651,10.6651,0,0,1-6.9572-3.56c-6.4429-7.5358-13.6766-14.1507-23.4341-16.3314-6.0432-1.3506-12.5844-.7259-18.8882-.5327-2.5243.0773-4.9613,5.0213-3.99,7.4344,1.5241,3.7863,3.8553,1.2369,5.7325.4171,9.1485-3.9955,15.8964,1.8523,23.6537,4.78-3.1322,5.1639-6.3225,6.4812-11.6978,4.54-7.1421-2.58-14.7116-4.0321-22.1591-5.6926-5.8993-1.3154-9.4458.6156-12.56,5.5752a9.8545,9.8545,0,0,1-4.4638,3.5432c-4.0273,1.6285-8.217,2.8655-12.3686,4.173-3.2938,1.0374-6.4959,1.1524-9.9584-1.5908l13.2-4.2306-.3366-1.0731L114.4707,86.424l-.3264-.7805,8.6259-6.2184-.5316-.7521L84.0748,96.08l.1307.5379,40.84-9.9779.4918,1.5246c-12.2588,11.8584-26.2154,20.6048-43.7967,22.8232a35.3291,35.3291,0,0,0,21.336-4.106c6.3457-3.3611,12.3537-7.36,18.51-11.0787l.8458.832-17.3615,19.7964,2.07,1.9409q3.252-4.3172,6.5049-8.6338c5.1806-6.85,10.3182-13.7347,15.6075-20.5.6913-.8842,2.1714-1.1518,3.2861-1.705.1432,1.2489.6643,2.6051.3469,3.7234a44.319,44.319,0,0,1-2.5086,5.81l.5772.2976,7.9355-8.9772C139.6369,93.4448,140.2121,97.34,140.7874,101.2348ZM19.7674,52.0916c1.57.3107,4.3639,1.6243,6.8885,1.2273,9.5006-1.494,18.9237-3.4946,28.3571-5.3983,18.6222-3.758,37.136-7.628,54.5853-15.7833,9.95-4.6505,20.8966-4.44,31.7248-2.16,13.404,2.8228,26.79,5.8863,40.3285,7.8554,7.9387,1.1546,13.6507,4.8291,18.5065,10.6543,4.4774,5.3712,8.9435,10.7518,13.5763,16.3227.0427-.67.27-1.2776.0689-1.5051-7.2121-8.14-14.407-16.2978-21.7833-24.2877-.9278-1.005-2.8026-1.2964-4.3028-1.5872-14.6682-2.8432-29.4982-5.0131-43.9867-8.5761-14.8787-3.659-28.5452-1.2511-42.283,4.5417A196.6137,196.6137,0,0,1,76.24,41.8594c-10.9471,2.9509-22.0322,5.494-33.1776,7.57C35.2073,50.892,27.1528,51.2845,19.7674,52.0916Zm95.1956,79.8443-.93,1.911c-5.983-.5758-12.1544-.43-17.8959-1.9307-5.7165-1.4937-11.0013-4.6392-16.4754-7.06,1.8924,2.0791,3.9264,4.7031,6.5685,5.6768,5.4913,2.0238,11.2286,3.9261,17.0033,4.5106,9.4233.9539,18.9567.8337,28.445,1.1225,2.7128.0826,5.43.0127,8.1455.0127l.2733-1.2666c-12.16-.7045-24.5442-.7767-32.9763-12.0144l-1.0893,1.7808ZM868.5836,169.33c5.264,19.7174,9.8009,38.7344,8.1883,58.6036C881.9618,219.9219,875.9349,176.4316,868.5836,169.33ZM141.1333,44.3458c8.8207,11.7855,20.5273,19.8727,33.68,26.1083ZM894.1267,259.6144q.03-.63.06-1.2606l-33.5516-3.0253-.1038,1.2338C871.553,259.5331,882.8293,259.6906,894.1267,259.6144Zm-24.9792,2.6864-.1788,1.9951,16.559,1.371q.072-.8082.1438-1.6165Z"/><path d="M851.97,116.409c-.1565-.89-.1626-2.4784-.4953-2.55a23.9958,23.9958,0,0,0-4.6673-.2658c-50.0752-.7222-100.1494-1.5256-150.226-2.14q-155.399-1.9056-310.8-3.6731c-25.1929-.3077-50.3823-.9-75.5736-1.3428a25.1311,25.1311,0,0,0-2.8343.2734l-3.4033,23.3066c5.2094.5547,9.5412.8942,13.8352,1.5011,6.8653.97,10.0284,3.6012,9.8843,7.9294-.1279,3.8437-4.9288,8.3942-10.1813,8.8832-4.47.4161-9.0147-.0456-13.5192.102-1.3339.0438-2.6432.8367-3.9638,1.2863,1.0359.99,1.9043,2.459,3.1361,2.8909,6.1692,2.1628,12.43,4.0657,18.6663,6.0347,2.2274.7032,4.5622,1.1363,6.6964,2.0474,3.0262,1.2919,7.0092,1.83,6.809,6.503-.1774,4.14-4.3061,8.97-8.6934,9.1938a46.0522,46.0522,0,0,1-11.9807-1.2339,104.486,104.486,0,0,1-11.5459-3.7571c-4.2349-1.4566-8.1-2.2369-12.8751-.59-3.2784,1.1308-8.0226-.2343-11.502-1.8206-6.4026-2.9191-12.3243-2.2221-19.4285.38,1.8646,1.5846,3.171,2.7525,4.537,3.8462,8.6457,6.9223,9.9977,17.0644,2.7509,25.43a140.39,140.39,0,0,1-16.4423,16.3384c-8.42,6.9624-18.2714,7.0136-28.4307,4.19a10.226,10.226,0,0,0-6.3156.2064c-6.009,2.597-12.03,4.6546-19.1,4.2026,7.915-2.8541,15.9457-4.57,22.6772-8.5068,6.83-3.9946,12.3766-10.1828,18.4853-15.41l.934,1.0009c-2.7435,2.5768-5.463,5.18-8.2388,7.7215-1.96,1.7949-4.1213,3.3913-5.9178,5.331-.4884.5272-.3724,2.59.1292,2.9108,6.5834,4.2061,19.0879,2.32,24.6736-3.748l-3.4515-1.7239,7.093-1.2852-.0158-1.2664h-9.83l-.1162-1.6866,12.4456-1.7834c-2.8519-11.492-13.8425-17.2243-18.48-27.0387l1.1009-.86L258.3748,203.61c6.1138-2.4672,10.6791-9.0231,9.9522-15.9532l-3.945,1.5716c-.2636-.7694-.54-1.5774-.8843-2.5815l-4.6453,2.0976-.5825-.8606c2.4015-1.56,4.7307-3.249,7.2232-4.6467,2.9365-1.6466,3.0363-3.5971.4714-5.3307-8.6458-5.8438-17.2356-11.82-26.2715-17.0047-2.4572-1.41-6.41-.2139-10.7464-.2139,4.2946-3.5966,8.0591-3.0651,11.752-1.4967a64.2436,64.2436,0,0,1,7.8179,4.2042c7.7465,4.6479,9.7526,4.7853,19.3785.6425-1.6288-1.1264-2.8824-2.1-4.2334-2.911-13.2542-7.9585-26.66-15.6765-39.7113-23.9539-4.1324-2.6209-6.3176-1.6132-9.5156,1.2794-14.6072,13.2119-29.1254,26.5589-44.3287,39.0633-12,9.87-21.8841,11.9219-36.0576,9.8005,5.9822-.817,11.6964-1.3989,17.3234-2.4485a24.5838,24.5838,0,0,0,8.3188-2.977c21.3185-13.1993,39.0605-30.5612,56.8071-48.9163l-5.6659-3.4469c-10.2116,8.7779-20.0082,17.2371-29.8541,25.6386-2.85,2.432-5.7876,5.2853-9.9039,2.57-4.0571-2.6766-3.7075-6.4618-2.178-10.4226a9.0954,9.0954,0,0,0,.0209-2.2142c-5.8979.4408-11.7361.9128-17.58,1.299-2.9177.1928-5.912.8277-7.9206-2.4532-2.0148-3.2909-1.21-6.2384.441-9.2378.5254-.9545,1.1124-1.8752,1.8656-3.137-.9065-.3741-1.8876-.492-2.41-1.044-2.3473-2.4781-6.0768-4.8761-6.4549-7.6867a8.4106,8.4106,0,0,1,6.0882-9.3933c10.0269-3.1331,19.975-6.518,30.256-9.8982-2.54-4.33-5.0848-5.8676-9.5448-4.149a159.2742,159.2742,0,0,1-15.9346,4.7346c-3.0447.82-5.9937.9-7.0849-3.0482,1.6894.4415,3.0466,4.3848,5.0634.8789,2.5018-4.349,5.9181-5.48,10.6129-4.5866,1.2548.2388,2.7386-.7257,4.5849-1.2776,3.599,3.563,25.7409-2.58,30.9447-9.661-8.5934-4.912-18.2713-4.4853-26.8372-5.2616-4.0833,1.4873-7.854,3.0551-11.7415,4.2394-10.6925,3.2575-12.2852,5.1826-12.4772,15.8176-.5753-3.895-1.15-7.79-1.8975-12.8476l-7.9355,8.9772-.5772-.2976a44.319,44.319,0,0,0,2.5086-5.81c.3174-1.1183-.2037-2.4745-.3469-3.7234-1.1147.5532-2.5948.8208-3.2861,1.705-5.2893,6.7656-10.4269,13.65-15.6075,20.5q-3.26,4.311-6.5049,8.6338l-2.07-1.9409,17.3615-19.7964-.8458-.832c-6.1563,3.7188-12.1643,7.7176-18.51,11.0787a35.3291,35.3291,0,0,1-21.336,4.106c17.5813-2.2184,31.5379-10.9648,43.7967-22.8232l-.4918-1.5246-40.84,9.9779-.1307-.5379L122.2386,78.673l.5316.7521-8.6259,6.2184.3264.7805,34.1122-6.4854.3366,1.0731-13.2,4.2306c3.4625,2.7432,6.6646,2.6282,9.9584,1.5908,4.1516-1.3075,8.3413-2.5445,12.3686-4.173a9.8545,9.8545,0,0,0,4.4638-3.5432c3.1142-4.96,6.6607-6.8906,12.56-5.5752,7.4475,1.66,15.017,3.1128,22.1591,5.6926,5.3753,1.9416,8.5656.6243,11.6978-4.54-7.7573-2.9273-14.5052-8.7751-23.6537-4.78-1.8772.82-4.2084,3.3692-5.7325-.4171-.9713-2.4131,1.4657-7.3571,3.99-7.4344,6.3038-.1932,12.845-.8179,18.8882.5327,9.7575,2.1807,16.9912,8.7956,23.4341,16.3314a10.6651,10.6651,0,0,0,6.9572,3.56c14.5514.2607,29.1129.1049,43.6669-.147A7.1664,7.1664,0,0,0,281,79.8644c6.5625-7.4713,15.7715-7.9456,21.5985-.2751,2.6512,3.49,5.5843,3.8791,9.2623,3.8959q103.7789.4732,207.5575.9862,162.9489.5538,325.8985.9011c2.0156.0054,4.0314.0006,6.4607.0006-.46-2.6006-1.2685-4.8419-1.1267-7.0214.1407-2.1628.617-4.9537,2.05-6.2418,2.66-2.3915,3.1954-4.9361,3.141-8.221q-.2563-15.4923-.096-30.9908c.0759-8.3457,3.6538-13.1141,10.1726-14.0574a11.0933,11.0933,0,0,1,11.0854,4.5958c1.6362,2.1478,3.1407,3.0316,6.2529,2.0274,8.6141-2.78,13.0693-.7131,14.7325,8.3532,2.3269,12.6843,3.06,25.6549,4.7383,38.4686a31.2689,31.2689,0,0,0,2.8839,9.0275c1.3853,2.9463,4.1028,5.39,4.9794,8.418a21.5228,21.5228,0,0,1,.31,10.2559c-1.0145,4.5707-2.4151,8.6094,2.5943,11.8287,2.3139,1.487,2.2149,3.6829.5419,6.0711-1.0214,1.4581-2.1477,3.9893-1.5353,5.132.65,1.2122,3.2678,1.4874,5.0849,1.9321,4.29,1.05,9.0166,1.1628,12.84,3.0941,7.1865,3.6306,6.8231,11.35,7.8235,18.0217,1.55,10.3349,2.6406,20.7384,4.1827,31.0745,1.0628,7.1231.8654,13.8542-2.5714,20.4808-2.0581,3.9682-2.956,8.5221-4.5876,12.73-5.1558,13.2986-11.9788,25.2674-24.1609,33.7483-2.8628,1.993-4.5912,6.6611-5.3838,10.4069-4.1281,19.5089-7.7531,39.1238-11.6529,58.6819a40.87,40.87,0,0,1-2.2513,6.1281l-1.7976-.5334q7.4165-35.7834,14.8569-71.6819l-13.9027,1.013q-.1181-.6318-.2362-1.2637a12.9635,12.9635,0,0,1,2.946-.68c11.92.06,20.9139-5.4546,27.9071-14.6739,5.9959-7.9046,10.7494-16.4507,13.1167-26.2025a19.5429,19.5429,0,0,1,2.2782-6.11c4.727-7.1846,4.6786-14.8018,3.3117-22.9415-2.1939-13.0649-3.7548-26.2357-5.6417-39.3533a41.9516,41.9516,0,0,0-1.35-4.8852l-5.5878,3.2639c1.1856-2.3019,1.9456-3.7776,3.1976-6.2086-7.1818,2.6038-8.6057,9.6008-12.9833,13.58l-.9948-.6817,9.0171-14.4878c-5.6364,0-10.3859-.1192-15.1192.1038-.9122.0429-2.0891,1.2568-2.5878,2.2188-4.3261,8.3434-9.3144,8.0086-16.3873,3.0266-2.0108-1.4164-3.7569-3.2087-5.6481-4.8492-3.4552,8.368-1.5622,13.92,6.33,17.62,6.8781,3.2246,13.9266,6.0859,20.7851,9.0581-4.8.7041-5.98,2.1736-4.2133,7.0655,1.7714,4.904,4.311,9.5306,7.0406,15.4141-7.8177-6.5954-9.2315-14.8889-10.6919-23.9425-9.5936,11.5316-10.9239,23.8056-8.0877,37.3459-4.6557-3.8563-4.8466-7.6987-2.71-27.8428a72.2572,72.2572,0,0,0-6.6691,6.0244,78.5636,78.5636,0,0,0-5.3033,7.5955l-1.431-.9372,10.4188-15.2867c-7.264,1.917-10.78,7.57-16.6567,11.0667,1.9313-6.1625,6.9144-7.78,10.9182-10.3658-4.0213-5.1187-9.083-4.9036-12.7512-.43-4.2393,5.17-9.1312,9.8121-13.85,14.5738-.8757.8835-2.2752,1.2477-3.433,1.8516l-.9269-1.2189c2.2122-1.9042,4.4716-3.7567,6.6242-5.7262a82.5516,82.5516,0,0,0,7.0662-6.8636,80.0527,80.0527,0,0,0,5.1133-7.4258L849.86,164.1747q-.3422-.9609-.6846-1.9218l21.6093-7.2266-6.6918-7.8949c20.16,10.5686,29.8371,13.7,35.1974,10.5049-9.6431-3.7406-11.4045-13.9579-18.1484-19.9379l-2.2176,3.9045c-.3861-.3437-.7443-.5866-.7155-.6477,2.2669-4.8251-.19-6.9257-4.4926-8.3424-3.6936-1.2162-7.2441-2.8673-10.8572-4.3275-3.7393-1.5111-7.495-.8643-10.0526,1.8241-10.119,10.6364-20.1746,21.3555-29.7633,32.4671-8.3537,9.6806-9.5865,20.7311-5.3673,32.9187,3.6571,10.5642,5.8377,21.6367,9.4209,32.2309,1.69,4.9983,4.9809,9.5019,7.8541,14.0346,1.4806,2.3359,3.6353,4.2446,4.8739,7.2208l-5.6643-3.5461A807.8112,807.8112,0,0,1,816.4675,327.78l-1.6668-.2879c.354-2.1566.61-4.3347,1.0774-6.4664,4.6354-21.1489,9.3327-42.2842,13.9358-63.44a79.1651,79.1651,0,0,0,1.3311-9.2678,17.24,17.24,0,0,0-2.2213-10.1564c-2.6311-4.9941-3.7688-10.7911-5.4168-16.2837-3.1779-10.5916-6.325-21.1933-9.3719-31.8231a26.3542,26.3542,0,0,1,1.3144-19.2129c7.8365-16.1078,14.99-32.6116,26.0278-46.9544,2.7747-3.6057,5.3135-7.4887,10.5917-7.5593-3.02,2.8637-6.5195,5.3715-8.95,8.6679-4.349,5.8986-8.1073,12.2387-11.9994,18.465-1.4392,2.3021-2.5594,4.8037-3.825,7.2144l.9616.719c4.9276-4.8658,9.9287-9.66,14.7687-14.6112,12.7731-13.0676,15.12-14.49,31.4292-6.02,2.4759,1.2858,5.1859,2.1208,7.7876,3.1643q.5978-.8124,1.1955-1.6248l-3.5943-4.9c1.3694-.6084,3.2656-.8362,4.0241-1.886,5.5412-7.6691,6.6707-8.0538,15.3221-4.4066,2.8626,1.2068,5.7544,2.3637,8.6995,3.3432.8344.2776,1.904-.1519,4.1294-.3954-2.2849-2.7911-3.4819-5.6094-5.52-6.4967-7.0771-3.0814-14.446-5.4926-21.7039-8.1587l-.6147,1.3208.9957,2.459c-2.3079-1.091-4.4535-2.9571-6.5829-2.9388a100.2233,100.2233,0,0,0-14.3772,1.6512c-2.5854.4009-5.1048,1.2273-7.654,1.8617a9.5692,9.5692,0,0,0,3.7956,2.7345c6.5633,3.6507,13.0914,7.3644,19.6367,11.0613-4.527-2.2224-8.9456-4.7351-13.6234-6.5959C861.7055,119.1,856.7807,117.8978,851.97,116.409ZM321.8255,139.595l3.9765-4.2389-9.8374-2.4414-.97,1.587,4.8169,4.6391c-1.9739-1.502-4.6289-2.6113-5.7712-4.5927-2.002-3.4728-4.9182-2.0239-7.4556-2.1573-1.2289-.0645-3.3216.86-3.6467,1.8082a105.4464,105.4464,0,0,0-2.6031,10.6328c10.9731,4.2823,23.838,3.4413,25.4487-5.6628ZM202.8531,125.7361a57.8953,57.8953,0,0,1-6.3022,4.9233c-7.1082,4.1705-14.4165,8.001-21.5138,12.1893-5.3086,3.1327-6.67,9.8077-3.6838,12.2212,3.1986-2.3339,5.9852-4.8157,9.1753-6.5587,2.7482-1.5015,6.4462-1.5092,8.8624-3.3245a208.499,208.499,0,0,0,15.89-13.7776c1.0816-.9984,1.4182-2.8038,2.0982-4.2373l-4.685-1.2932c-2.0246-2.2576-4.0568-4.5084-6.0717-6.7745-2.3484-2.6413-4.8619-3.169-7.64-.6454q-.1824-.1981-.3645-.3968l2.9195-3.4043c-5.1095-3.3847-9.8366-6.5876-14.6586-9.6405a4.05,4.05,0,0,0-3.0456-.484c-10.2509,3.5172-20.5179,7.0042-30.65,10.8425-5.4173,2.0521-6.3611,7.2995-2.3272,11.4785a12.7717,12.7717,0,0,1,2.447-1.0676c5.039-1.0778,10.251-5.6627,14.9119,1.3179.74,1.1081,4.5662.1553,7.443.1553l-1.27-4.7442.6592-.2809c.9082,1.6762,1.8163,3.3525,3.0127,5.5609-5.9934,1.2926-11.4328,2.4109-16.8451,3.6475-6.1969,1.4158-9.1487,7.426-5.8778,11.815,5.8962-7.1105,11.55-7.0163,17.8534,1.2719.7534-3.2361,1.33-5.7135,2.1522-9.2444,1.709,1.539,3.3142,2.3475,3.8856,3.62,1.621,3.6108,3.8124,3.4438,6.7472,1.79C184.9056,135.6623,193.8866,130.7177,202.8531,125.7361ZM855.6808,104.445c0-2.2526.0087-3.6492-.0015-5.0456-.051-6.9663.9621-6.4261-6.6112-6.4831-70.1256-.5277-140.2506-1.1777-210.377-1.5717q-164.3634-.9237-328.7284-1.5631c-1.1962-.0055-2.3933.1955-3.5675.2982.2316,9.0354.5247,9.31,8.9424,9.3869q96.9691.88,193.9383,1.78,165.0579,1.5769,330.1155,3.1922C844.6755,104.4893,849.96,104.445,855.6808,104.445Zm13.4746-47.9593-.1671-1.1387c1.4376-.3154,3.06-.3119,4.274-1.0135,2.4467-1.4133,6.5179-3.0522,6.6743-4.8763.75-8.7394.42-17.764-5.124-25.1-1.6747-2.2158-6.0814-3.8115-8.8352-3.341-2.5106.4289-4.9354,3.76-6.5275,6.3475-1.1185,1.8178-1.02,4.5314-1.0457,6.85-.1318,11.714.5027,23.48-.4318,35.1234-.4756,5.9254,1.2074,9.8864,5.0535,13.6714,3.2053,3.1544,17.2695,1.4786,19.5512-2.4425a4.0634,4.0634,0,0,0,.3925-2.25c-.6307-7.7116-1.3181-15.4186-1.9661-22.8544Zm21.5017,2.8115-.4639-1.0893a33.7156,33.7156,0,0,1,4.4562-2.2679c3.786-1.2908,4.96-3.8112,4.1258-7.5792-1.1777-5.3164-2.0365-10.7162-3.4764-15.9582-1.5142-5.5127-7.0163-7.6312-11.98-4.6194a5.6973,5.6973,0,0,0-2.07,4.4807c1.3627,18.3436,2.9643,36.6694,4.4567,55.0037.3,3.6818.3992,7.38.5853,10.9586,11.022,1.4048,16.75-2.0887,14.89-8.97h-5.4787c1.8051-1.6919,4.995-3.2817,5.052-4.9769.25-7.42-.409-14.8707-.7514-22.6142l-9.1052,1.5739-.2267-.7671,9.0938-4.33-.42-1.0925Zm-640.8338,82.78-.4454,1.6149a9,9,0,0,0,1.6509,1.5149c14.9758,8.0447,28.4844,19.1365,45.8245,22.2466,1.557.2793,3.3166-.57,5.32-.9618,4.5612,6.5676,12.6783,7.3431,20.5859,8.3,3.5825.4336,7.1378-.1368,8.9407-4.1975-9.4291-2.8122-11.43-4.7-11.1713-10.8779-2.5346-.1807-5.1035-.3382-7.6668-.5616a6.8028,6.8028,0,0,1-2.34-.5094c-2.8881-1.3976-5.6248-3.1713-8.6107-4.29-5.3844-2.0174-10.8694-3.7994-16.401-5.3668-1.3137-.3722-2.9779.4929-5.0363.8982l-1.7181-1.284c-.6616,1.8925-1.178,3.37-1.4079,4.0276-.7345-1.8612-1.2054-5.6022-2.496-5.9105C266.61,144.7524,258.1867,143.5393,249.8233,142.0777Zm11.538-18.0095a59.7557,59.7557,0,0,1,6.9492.0441c3.7694.5238,5.5244-1.276,5.68-4.752.23-5.1347.3852-10.2856.1954-15.4158a4.2314,4.2314,0,0,0-2.654-3.0249c-10.1936-1.92-20.4032-3.8348-30.6828-5.1819-4.5794-.6-5.5614,1.439-3.116,5.6,2.8345,4.8234,6.1549,9.3637,8.9384,14.214C250.2866,121.8508,254.5849,126.4445,261.3613,124.0682Zm-34.8094,2.9527-.0861,1.6449c7.9659,9.3861,27.1973,15.5224,46.5635,14.8138V127.0209Zm-12.8335-5.91c4.334,2.8368,8.28,8.5385,15.6076,4.2825,1.6764-.9737,4.258-.4427,6.4258-.5021,2.4076-.066,4.8183-.0151,8.3987-.0151-6.7118-9.9851-12.6238-19.2392-19.11-28.072-1.4292-1.9463-4.8932-2.3983-8.1606-3.8725,0,5.7745.3959,10.2919-.1118,14.7053C216.265,112.0141,214.8514,116.287,213.7184,121.1105Zm.63-21.3419c-1.5212-7.1156-8.814-12.2787-16.9129-11.5416-6.9609.6336-8.6069,7.95-13.0589,12.51,4.9085,3.3979,9.1959,6.4754,13.6227,9.3373.8784.5679,2.6562.8451,3.3968.3413,3.9078-2.6582,7.6164-5.6094,11.3941-8.4589l.8754-2.0374q-2.9229-1.8219-5.8459-3.6437l.5438-.4912Zm82.4271,29.5c1.0936-7.6861,2.1385-14.1089,2.7932-20.5712a4.1923,4.1923,0,0,0-2.4113-3.239c-3.9-1.0471-7.9345-1.6056-11.9279-2.2923-2.4935-.4288-3.9932.7185-4.11,3.207-.2332,4.9925-.3359,9.9925-.3822,14.99a2.3889,2.3889,0,0,0,1.0173,1.8688C286.4065,125.1959,291.1169,127.02,296.7753,129.269Zm-15.2359-3.1717v19.4218c3.7732-.3773,6.7418-.4,9.5466-1.09a4.7163,4.7163,0,0,0,2.7079-3.1186,102.8678,102.8678,0,0,0,1.4135-10.72c.0174-.1635-.7579-.4754-1.197-.6134C289.7794,128.6469,285.5412,127.339,281.5394,126.0973ZM277.0773,88.941h-37.432c11.1634,2.5436,22.4628,4.31,33.7992,5.7947C277.241,95.2329,276.896,92.17,277.0773,88.941Zm615.8319,32.4406c-1.4793.8183-3.78,1.3544-4.0683,2.43a6.47,6.47,0,0,0,1.3388,4.9575,19.9246,19.9246,0,0,0,5.4067,4.3008c4.0513,2.41,8.1512,1.2765,10.1893-2.8488.467-.9455.2982-3.223-.2556-3.4919C901.5386,124.796,897.3825,123.2226,892.9092,121.3816ZM299.3322,98.6848c.7982-9.4732-4.1654-13.7313-11.7639-10.5536-1.7839.746-3.0211,3.4886-3.754,5.5778-.1852.5279,2.3939,2.6416,3.9555,3.0428C291.4466,97.6965,295.2758,98.048,299.3322,98.6848ZM866.7741,87.3854l16.1107,12.5207,1.1629-.8476c-.4433-4.8088-.8866-9.6176-1.3416-14.5523ZM201.87,112.7l8.9187,6.9065c4.3493-4.86,4.6424-9.8039,2.9064-15.71Zm655.677-23.1125c0,2.5818-.0019,4.0992,0,5.6166.0145,10.4668,1.363,11.2187,10.9833,6.0958.1979-.1054.2452-.4936.5529-1.1642ZM333.5657,166.4428c-2.052-3.9386-5.9791-4.5089-9.6728-5.2787-.325-.0677-1.74,2.0713-1.4838,2.74C323.8307,167.6172,329.6675,168.9508,333.5657,166.4428ZM147.38,143.9241c4.787.441,8.2739.7548,11.0906-2.0741C154.82,140.695,151.0389,138.637,147.38,143.9241Zm-2.97-16.8717c5.301,3.5089,8.6947,2.9377,11.3371-1.7846Zm63.3215-46.9212h7.59C211.3365,75.1256,210.571,75.1188,207.7319,80.1312Zm-32.9741,75.3739,1.733,1.5L181.558,151.2l-1.7348-1.5172Q177.29,152.5939,174.7578,155.5051Z"/><path d="M19.7674,52.0916c7.3854-.8071,15.44-1.2,23.2951-2.6625C54.2079,47.3534,65.293,44.81,76.24,41.8594a196.6137,196.6137,0,0,0,25.2074-8.4642c13.7378-5.7928,27.4043-8.2007,42.283-4.5417,14.4885,3.563,29.3185,5.7329,43.9867,8.5761,1.5.2908,3.375.5822,4.3028,1.5872,7.3763,7.99,14.5712,16.1475,21.7833,24.2877.2016.2275-.0262.8354-.0689,1.5051-4.6328-5.5709-9.0989-10.9515-13.5763-16.3227-4.8558-5.8252-10.5678-9.5-18.5065-10.6543-13.5381-1.9691-26.9245-5.0326-40.3285-7.8554-10.8282-2.28-21.7744-2.49-31.7248,2.16C92.149,40.2926,73.6352,44.1626,55.013,47.9206c-9.4334,1.9037-18.8565,3.9043-28.3571,5.3983C24.1313,53.7159,21.3378,52.4023,19.7674,52.0916Z"/><path d="M114.963,131.9359l-8.9313-7.2577,1.0893-1.7808c8.4321,11.2377,20.8161,11.31,32.9763,12.0144l-.2733,1.2666c-2.7153,0-5.4327.07-8.1455-.0127-9.4883-.2888-19.0217-.1686-28.445-1.1225-5.7747-.5845-11.512-2.4868-17.0033-4.5106-2.6421-.9737-4.6761-3.5977-6.5685-5.6768,5.4741,2.4212,10.7589,5.5667,16.4754,7.06,5.7415,1.5,11.9129,1.3549,17.8959,1.9307Z"/><path d="M868.5836,169.33c7.3513,7.1021,13.3782,50.5924,8.1883,58.6036C878.3845,208.0639,873.8476,189.0469,868.5836,169.33Z"/><path d="M141.1333,44.3458l33.68,26.1083C161.6606,64.2185,149.954,56.1313,141.1333,44.3458Z"/><path d="M894.1267,259.6144c-11.2974.0762-22.5737-.0813-33.5949-3.0521l.1038-1.2338,33.5516,3.0253Q894.1569,258.9841,894.1267,259.6144Z"/><path d="M869.1475,262.3008l16.524,1.75q-.072.8082-.1438,1.6165l-16.559-1.371Z"/><path class="cls-3" d="M855.6808,104.445c-5.72,0-11.0053.0443-16.2894-.0065q-165.0577-1.5887-330.1155-3.1922-96.9688-.9264-193.9383-1.78c-8.4177-.0764-8.7108-.3515-8.9424-9.3869,1.1742-.1027,2.3713-.3037,3.5675-.2982q164.3643.7532,328.7284,1.5631c70.1264.394,140.2514,1.044,210.377,1.5717,7.5733.057,6.56-.4832,6.6112,6.4831C855.69,100.7958,855.6808,102.1924,855.6808,104.445Z"/><path class="cls-3" d="M188.9821,118.4587c2.7782-2.5236,5.2917-1.9959,7.64.6454,2.0149,2.2661,4.0471,4.5169,6.0717,6.7745l.1543-.14c-8.9616,4.9791-17.9426,9.9237-26.8736,14.957-2.9348,1.654-5.1262,1.821-6.7472-1.79-.5714-1.2728-2.1766-2.0813-3.8856-3.62-.822,3.5309-1.3988,6.0083-2.1522,9.2444-6.3036-8.2882-11.9572-8.3824-17.8534-1.2719-3.2709-4.389-.3191-10.3992,5.8778-11.815,5.4123-1.2366,10.8517-2.3549,16.8451-3.6475-1.1964-2.2084-2.1045-3.8847-3.0127-5.5609l-.6592.2809,1.27,4.7442c-2.8768,0-6.7031.9528-7.443-.1553-4.6609-6.9806-9.8729-2.3957-14.9119-1.3179a12.7717,12.7717,0,0,0-2.447,1.0676c-4.0339-4.179-3.09-9.4264,2.3272-11.4785,10.1326-3.8383,20.4-7.3253,30.65-10.8425a4.05,4.05,0,0,1,3.0456.484c4.822,3.0529,9.5491,6.2558,14.6586,9.6405l-2.9195,3.4043c-2.5954,1.6829-5.1289,3.4734-7.806,5.0145-2.1429,1.2337-4.5044,3.0721-6.6873,2.9658-2.0447-.1-3.9821-2.401-5.6812-3.5417,1.6363,5.4731,3.66,6.7522,8.7055,4.0536C181.338,124.3135,185.0556,121.1907,188.9821,118.4587Z"/><path class="cls-3" d="M869.1554,56.4857l11.8481-1.0247c.648,7.4358,1.3354,15.1428,1.9661,22.8544a4.0634,4.0634,0,0,1-.3925,2.25c-2.2817,3.9211-16.3459,5.5969-19.5512,2.4425-3.8461-3.785-5.5291-7.746-5.0535-13.6714.9345-11.6434.3-23.4094.4318-35.1234.0261-2.3183-.0728-5.0319,1.0457-6.85,1.5921-2.5875,4.0169-5.9186,6.5275-6.3475,2.7538-.47,7.16,1.1252,8.8352,3.341,5.5445,7.3362,5.8737,16.3608,5.124,25.1-.1564,1.8241-4.2276,3.463-6.6743,4.8763-1.2145.7016-2.8364.6981-4.274,1.0135Z"/><path class="cls-3" d="M890.6571,59.2972l8.6872-2.2478.42,1.0925-9.0938,4.33.2267.7671,9.1052-1.5739c.3424,7.7435,1.0009,15.1941.7514,22.6142-.057,1.6952-3.2469,3.285-5.052,4.9769h5.4787c1.86,6.8814-3.8681,10.3749-14.89,8.97-.1861-3.5787-.2857-7.2768-.5853-10.9586-1.4924-18.3343-3.094-36.66-4.4567-55.0037a5.6973,5.6973,0,0,1,2.07-4.4807c4.9637-3.0118,10.4658-.8933,11.98,4.6194,1.44,5.242,2.2987,10.6418,3.4764,15.9582.8346,3.768-.34,6.2884-4.1258,7.5792a33.7156,33.7156,0,0,0-4.4562,2.2679Z"/><path class="cls-3" d="M249.8233,142.0777c8.3634,1.4616,16.7862,2.6747,25.0286,4.643,1.2906.3083,1.7615,4.0493,2.496,5.9105.23-.6577.7463-2.1351,1.4079-4.0276l1.7181,1.284c2.0584-.4053,3.7226-1.27,5.0363-.8982,5.5316,1.5674,11.0166,3.3494,16.401,5.3668,2.9859,1.1187,5.7226,2.8924,8.6107,4.29a6.8028,6.8028,0,0,0,2.34.5094c2.5633.2234,5.1322.3809,7.6668.5616-.2592,6.1782,1.7422,8.0657,11.1713,10.8779-1.8029,4.0607-5.3582,4.6311-8.9407,4.1975-7.9076-.9572-16.0247-1.7327-20.5859-8.3-2.0034.3914-3.763,1.2411-5.32.9618-17.34-3.11-30.8487-14.2019-45.8245-22.2466a9,9,0,0,1-1.6509-1.5149Z"/><path class="cls-3" d="M261.3613,124.0682c-6.7764,2.3763-11.0747-2.2174-14.69-8.5162-2.7835-4.85-6.1039-9.3906-8.9384-14.214-2.4454-4.1613-1.4634-6.2,3.116-5.6,10.28,1.3471,20.4892,3.2621,30.6828,5.1819a4.2314,4.2314,0,0,1,2.654,3.0249c.19,5.13.0349,10.2811-.1954,15.4158-.1558,3.476-1.9108,5.2758-5.68,4.752A59.7557,59.7557,0,0,0,261.3613,124.0682Z"/><path class="cls-3" d="M226.5519,127.0209h46.4774V143.48c-19.3662.7086-38.5976-5.4277-46.5635-14.8138Z"/><path class="cls-3" d="M140.7874,101.2348c.192-10.635,1.7847-12.56,12.4772-15.8176,3.8875-1.1843,7.6582-2.7521,11.7415-4.2394,8.5659.7763,18.2438.35,26.8372,5.2616-5.2038,7.0813-27.3457,13.224-30.9447,9.661-1.8463.5519-3.33,1.5164-4.5849,1.2776-4.6948-.8936-8.1111.2376-10.6129,4.5866-2.0168,3.5059-3.374-.4374-5.0634-.8789C140.6336,101.0817,140.7874,101.2348,140.7874,101.2348Z"/><path class="cls-3" d="M213.7184,121.1105c1.133-4.8235,2.5466-9.0964,3.05-13.4739.5077-4.4134.1118-8.9308.1118-14.7053,3.2674,1.4742,6.7314,1.9262,8.1606,3.8725,6.4858,8.8328,12.3978,18.0869,19.11,28.072-3.58,0-5.9911-.0509-8.3987.0151-2.1678.0594-4.7494-.4716-6.4258.5021C221.9986,129.649,218.0524,123.9473,213.7184,121.1105Z"/><path class="cls-3" d="M879.9885,127.5471c-6.54-3.6923-13.0682-7.406-19.6315-11.0567a9.5692,9.5692,0,0,1-3.7956-2.7345c2.5492-.6344,5.0686-1.4608,7.654-1.8617a100.2233,100.2233,0,0,1,14.3772-1.6512c2.1294-.0183,4.275,1.8478,6.5829,2.9388l-.9957-2.459.6147-1.3208c7.2579,2.6661,14.6268,5.0773,21.7039,8.1587,2.0377.8873,3.2347,3.7056,5.52,6.4967-2.2254.2435-3.295.673-4.1294.3954-2.9451-.98-5.8369-2.1364-8.6995-3.3432-8.6514-3.6472-9.7809-3.2625-15.3221,4.4066-.7585,1.05-2.6547,1.2776-4.0241,1.886Z"/><path class="cls-3" d="M879.8429,127.4022l3.5943,4.9q-.5976.8124-1.1955,1.6248c-2.6017-1.0435-5.3117-1.8785-7.7876-3.1643-16.31-8.47-18.6561-7.0473-31.4292,6.02-4.84,4.9515-9.8411,9.7454-14.7687,14.6112l-.9616-.719c1.2656-2.4107,2.3858-4.9123,3.825-7.2144,3.8921-6.2263,7.65-12.5664,11.9994-18.465,2.43-3.2964,5.93-5.8042,8.95-8.6679l-.1008.0815c4.8126,1.4882,9.7374,2.6905,14.4022,4.5462,4.6778,1.8608,9.0964,4.3735,13.6234,6.5959C879.9885,127.5471,879.8429,127.4022,879.8429,127.4022Z"/><path class="cls-3" d="M214.3482,99.7686l-5.9849-3.9847-.5438.4912q2.923,1.8217,5.8459,3.6437l-.8754,2.0374c-3.7777,2.85-7.4863,5.8007-11.3941,8.4589-.7406.5038-2.5184.2266-3.3968-.3413-4.4268-2.8619-8.7142-5.9394-13.6227-9.3373,4.452-4.56,6.098-11.8759,13.0589-12.51C205.5342,87.49,212.827,92.653,214.3482,99.7686Z"/><path class="cls-3" d="M296.7753,129.269c-5.6584-2.249-10.3688-4.0731-15.02-6.0363a2.3889,2.3889,0,0,1-1.0173-1.8688c.0463-4.9979.149-9.9979.3822-14.99.1163-2.4885,1.616-3.6358,4.11-3.207,3.9934.6867,8.0276,1.2452,11.9279,2.2923a4.1923,4.1923,0,0,1,2.4113,3.239C298.9138,115.16,297.8689,121.5829,296.7753,129.269Z"/><path class="cls-3" d="M202.6939,125.8786l4.685,1.2932c-.68,1.4335-1.0166,3.2389-2.0982,4.2373a208.499,208.499,0,0,1-15.89,13.7776c-2.4162,1.8153-6.1142,1.823-8.8624,3.3245-3.19,1.743-5.9767,4.2248-9.1753,6.5587-2.9858-2.4135-1.6248-9.0885,3.6838-12.2212,7.0973-4.1883,14.4056-8.0188,21.5138-12.1893a57.764,57.764,0,0,0,6.3-4.9221Z"/><path class="cls-3" d="M321.8255,139.595l3.9578-.426c-1.6107,9.1041-14.4756,9.9451-25.4487,5.6628a105.4464,105.4464,0,0,1,2.6031-10.6328c.3251-.9485,2.4178-1.8727,3.6467-1.8082,2.5374.1334,5.4536-1.3155,7.4556,2.1573,1.1423,1.9814,3.7973,3.0907,5.7711,4.5926Z"/><path class="cls-3" d="M281.5394,126.0973c4.0018,1.2417,8.24,2.55,12.471,3.88.4391.138,1.2144.45,1.197.6134a102.8678,102.8678,0,0,1-1.4135,10.72,4.7163,4.7163,0,0,1-2.7079,3.1186c-2.8048.69-5.7734.7122-9.5466,1.09Z"/><path class="cls-3" d="M277.0773,88.941c-.1813,3.2294.1637,6.2919-3.6328,5.7947-11.3364-1.4847-22.6358-3.2511-33.7992-5.7947Z"/><path class="cls-3" d="M892.9092,121.3816c4.4733,1.841,8.6294,3.4144,12.6109,5.3478.5538.2689.7226,2.5464.2556,3.4919-2.0381,4.1253-6.138,5.2588-10.1893,2.8488a19.9246,19.9246,0,0,1-5.4067-4.3008,6.47,6.47,0,0,1-1.3388-4.9575C889.13,122.736,891.43,122.2,892.9092,121.3816Z"/><path class="cls-3" d="M299.3322,98.6848c-4.0564-.6368-7.8856-.9883-11.5624-1.933-1.5616-.4012-4.1407-2.5149-3.9555-3.0428.7329-2.0892,1.97-4.8318,3.754-5.5778C295.1668,84.9535,300.13,89.2116,299.3322,98.6848Z"/><path class="cls-3" d="M866.7741,87.3854l15.932-2.8792c.455,4.9347.8983,9.7435,1.3416,14.5523l-1.1629.8476Z"/><path class="cls-3" d="M201.87,112.7l11.8251-8.8039c1.736,5.9065,1.4429,10.85-2.9064,15.71Z"/><path class="cls-3" d="M857.5468,89.5875l11.5364,10.5482c-.3077.6706-.355,1.0588-.5529,1.1642-9.62,5.1229-10.9688,4.371-10.9833-6.0958C857.5449,93.6867,857.5468,92.1693,857.5468,89.5875Z"/><path class="cls-3" d="M333.5657,166.4428c-3.8982,2.508-9.735,1.1744-11.1566-2.5391-.2558-.6683,1.1588-2.8073,1.4838-2.74C327.5866,161.9339,331.5137,162.5042,333.5657,166.4428Z"/><path class="cls-3" d="M321.8255,139.595l-2.0144-.4543-4.8168-4.639.97-1.587,9.8374,2.4414Z"/><path class="cls-3" d="M147.38,143.9241c3.6588-5.2871,7.44-3.2291,11.0906-2.0741C155.654,144.6789,152.1671,144.3651,147.38,143.9241Z"/><path class="cls-3" d="M144.41,127.0524l11.3371-1.7846C153.1051,129.99,149.7114,130.5613,144.41,127.0524Z"/><path class="cls-3" d="M207.7319,80.1312c2.8391-5.0124,3.6046-5.0056,7.59,0Z"/><path class="cls-3" d="M174.7578,155.5051q2.5326-2.9113,5.0654-5.8226L181.558,151.2l-5.0672,5.8057Z"/><path d="M188.9821,118.4587c-3.9265,2.732-7.6441,5.8548-11.8335,8.0954-5.0457,2.6986-7.0692,1.4195-8.7055-4.0536,1.6991,1.1407,3.6365,3.4421,5.6812,3.5417,2.1829.1063,4.5444-1.7321,6.6873-2.9658,2.6771-1.5411,5.2106-3.3316,7.806-5.0145Q188.8,118.2605,188.9821,118.4587Z"/></g></g></svg>